<?xml version="1.0" encoding="utf-8"?>
<!-- Generator: Adobe Illustrator 16.0.0, SVG Export Plug-In . SVG Version: 6.00 Build 0)  -->
<!DOCTYPE svg PUBLIC "-//W3C//DTD SVG 1.1//EN" "http://www.w3.org/Graphics/SVG/1.1/DTD/svg11.dtd">
<svg version="1.1" id="Layer_1" xmlns="http://www.w3.org/2000/svg" xmlns:xlink="http://www.w3.org/1999/xlink" x="0px" y="0px"
	 width="300.075px" height="51.019px" viewBox="0 0 300.075 51.019" enable-background="new 0 0 300.075 51.019"
	 xml:space="preserve">
<g>
	<g>
		<polyline fill="#FFFFFF" points="33.103,0 33.103,12.472 46.003,25.42 33.103,38.367 33.103,51.019 58.499,25.543 		"/>
		<polygon fill="#FFFFFF" points="27.839,44.044 27.839,38.542 27.839,25.51 20.931,25.507 20.931,31.605 14.947,25.595 
			27.839,12.646 27.839,0 2.451,25.47 27.839,51.014 		"/>
	</g>
	<g>
		<path fill="#FFFFFF" d="M87.364,6.703c-2.373-1.823-5.501-2.441-8.426-2.441c-5.055,0-8.527,3.713-8.527,8.356
			c0,4.711,3.576,8.355,8.7,8.355c1.514,0,3.232-0.275,4.608-0.894v-5.295h-4.23l-0.171-0.172v-3.646l0.171-0.172h8.082l0.171,0.172
			v11.727c-2.579,1.685-5.536,2.476-8.631,2.476c-7.393,0-13.239-5.502-13.239-12.551c0-6.878,5.674-12.552,13.066-12.552
			c3.268,0,6.225,0.447,8.599,1.96V6.53L87.364,6.703z"/>
		<path fill="#FFFFFF" d="M93.621,9.007c1.03-0.516,2.406-1.032,4.298-1.032c3.782,0,6.946,2.235,6.946,6.877v9.629l-0.173,0.172
			h-3.679l-0.172-0.172v-0.516c-1.272,0.859-2.75,1.204-3.953,1.204c-2.786,0-5.674-1.375-5.674-4.78
			c0-4.539,4.71-5.949,9.627-6.224c0-1.445-1.204-2.58-3.095-2.58c-1.891,0-3.575,0.619-5.639,1.995l-0.171-0.172L93.621,9.007z
			 M100.841,17.225c-3.61,0.172-5.501,1.238-5.501,2.751c0,1.066,0.86,1.583,2.029,1.583c1.204,0,2.269-0.344,3.473-1.032V17.225z"
			/>
		<path fill="#FFFFFF" d="M113.254,0.582l0.173,0.171v8.425c1.065-0.688,2.578-1.204,4.126-1.204c4.814,0,8.46,3.817,8.46,8.597
			s-3.646,8.597-8.46,8.597c-1.548,0-3.061-0.516-4.126-1.204v0.516l-0.173,0.172h-3.644l-0.173-0.172V0.753l0.173-0.171H113.254z
			 M113.427,19.46c1.134,1.341,2.511,1.857,3.988,1.857c2.58,0,4.505-2.029,4.505-4.746c0-2.716-1.926-4.745-4.505-4.745
			c-1.477,0-2.854,0.688-3.988,1.856V19.46z"/>
		<path fill="#FFFFFF" d="M133.885,8.491l0.173,0.172v0.515c1.204-0.688,2.75-1.204,4.299-1.204c1.03,0,2.063,0.172,3.094,0.688
			l0.173,4.023l-0.173,0.172c-1.031-0.86-2.441-1.031-3.302-1.031c-1.581,0-3.164,0.653-4.091,1.719v10.935l-0.173,0.172h-3.644
			l-0.172-0.172V8.663l0.172-0.172H133.885z"/>
		<path fill="#FFFFFF" d="M146.814,1.613l2.51,2.476v0.344l-2.51,2.51h-0.345l-2.51-2.51V4.089l2.51-2.476H146.814z M148.464,8.491
			l0.173,0.172v15.818l-0.173,0.172h-3.645l-0.173-0.172V8.663l0.173-0.172H148.464z"/>
		<path fill="#FFFFFF" d="M168.236,23.14c-1.546,1.031-3.953,2.029-6.395,2.029c-5.262,0-9.148-3.886-9.148-8.735
			c0-4.677,3.268-8.459,8.323-8.459c4.574,0,7.427,3.92,7.427,7.978c0,0.55,0,0.929-0.172,1.444l-0.274,0.172h-11.245
			c0.482,2.51,2.441,3.99,5.09,3.99c2.098,0,4.368-0.826,6.225-2.477l0.17,0.172V23.14z M164.419,14.543
			c-0.171-1.616-1.65-2.958-3.403-2.958c-2.271,0-3.61,1.341-4.128,2.958H164.419z"/>
		<path fill="#FFFFFF" d="M175.765,0.582l0.172,0.171v17.779c0,1.926,0.861,2.786,2.168,2.786c1.1,0,2.131-0.344,3.164-1.375
			l0.17,0.172v4.023c-0.857,0.517-2.199,1.032-3.402,1.032c-3.955,0-6.088-2.442-6.088-6.396V0.753l0.172-0.171H175.765z"/>
		<path fill="#FFFFFF" d="M185.565,9.007c1.033-0.516,2.409-1.032,4.301-1.032c3.782,0,6.944,2.235,6.944,6.877v9.629l-0.17,0.172
			h-3.68l-0.173-0.172v-0.516c-1.272,0.859-2.751,1.204-3.955,1.204c-2.784,0-5.674-1.375-5.674-4.78
			c0-4.539,4.712-5.949,9.629-6.224c0-1.445-1.203-2.58-3.095-2.58c-1.891,0-3.578,0.619-5.639,1.995l-0.174-0.172L185.565,9.007z
			 M192.788,17.225c-3.61,0.172-5.502,1.238-5.502,2.751c0,1.066,0.859,1.583,2.028,1.583c1.203,0,2.271-0.344,3.474-1.032V17.225z"
			/>
		<path fill="#FFFFFF" d="M211.732,0.582l0.173,0.171l6.774,17.986l6.811-17.986l0.17-0.171h4.162l0.171,0.171l-9.216,23.728
			l-0.172,0.172h-3.817l-0.171-0.172L207.4,0.753l0.172-0.171H211.732z"/>
		<path fill="#FFFFFF" d="M234.977,1.613l2.511,2.476v0.344l-2.511,2.51h-0.343l-2.512-2.51V4.089l2.512-2.476H234.977z
			 M236.628,8.491l0.171,0.172v15.818l-0.171,0.172h-3.646l-0.17-0.172V8.663l0.17-0.172H236.628z"/>
		<path fill="#FFFFFF" d="M243.058,9.007c1.029-0.516,2.406-1.032,4.298-1.032c3.782,0,6.946,2.235,6.946,6.877v9.629l-0.172,0.172
			h-3.68l-0.17-0.172v-0.516c-1.275,0.859-2.752,1.204-3.955,1.204c-2.787,0-5.675-1.375-5.675-4.78c0-4.539,4.71-5.949,9.63-6.224
			c0-1.445-1.205-2.58-3.098-2.58c-1.891,0-3.576,0.619-5.64,1.995l-0.17-0.172L243.058,9.007z M250.281,17.225
			c-3.612,0.172-5.504,1.238-5.504,2.751c0,1.066,0.86,1.583,2.029,1.583c1.203,0,2.27-0.344,3.475-1.032V17.225z"/>
		<path fill="#FFFFFF" d="M262.692,8.491l0.171,0.172v0.515c1.205-0.688,2.751-1.204,4.301-1.204c5.155,0,7.735,2.923,7.735,7.565
			v8.941l-0.171,0.172h-3.646l-0.17-0.172v-8.494c0-2.751-1.377-4.161-3.955-4.161c-1.584,0-3.164,0.653-4.094,1.719v10.935
			l-0.171,0.172h-3.646l-0.172-0.172V8.663l0.172-0.172H262.692z"/>
		<path fill="#FFFFFF" d="M280.812,9.007c1.033-0.516,2.407-1.032,4.299-1.032c3.782,0,6.946,2.235,6.946,6.877v9.629l-0.171,0.172
			h-3.682l-0.17-0.172v-0.516c-1.273,0.859-2.752,1.204-3.955,1.204c-2.786,0-5.674-1.375-5.674-4.78
			c0-4.539,4.712-5.949,9.629-6.224c0-1.445-1.203-2.58-3.095-2.58s-3.577,0.619-5.64,1.995l-0.172-0.172L280.812,9.007z
			 M288.035,17.225c-3.612,0.172-5.502,1.238-5.502,2.751c0,1.066,0.859,1.583,2.027,1.583c1.203,0,2.271-0.344,3.475-1.032V17.225z
			"/>
	</g>
	<g>
		<path fill="#FFFFFF" d="M72.23,45.193V34.331h3.201c0.684,0,1.28,0.078,1.788,0.236c0.507,0.158,0.927,0.385,1.259,0.678
			c0.332,0.294,0.582,0.648,0.746,1.062c0.166,0.415,0.248,0.877,0.248,1.385c0,0.502-0.088,0.963-0.266,1.383
			c-0.177,0.42-0.436,0.781-0.775,1.084c-0.34,0.302-0.762,0.537-1.267,0.704c-0.504,0.167-1.082,0.25-1.732,0.25H73.69v4.08H72.23z
			 M73.69,39.958h1.747c0.42,0,0.79-0.055,1.111-0.166c0.32-0.111,0.589-0.268,0.807-0.467c0.217-0.199,0.381-0.438,0.493-0.715
			c0.111-0.275,0.167-0.582,0.167-0.918c0-0.691-0.214-1.231-0.641-1.621c-0.427-0.391-1.072-0.586-1.936-0.586H73.69V39.958z"/>
		<path fill="#FFFFFF" d="M81.131,45.193v-7.679h0.761c0.146,0,0.246,0.026,0.3,0.079s0.09,0.146,0.109,0.28l0.105,1.162
			c0.266-0.523,0.591-0.931,0.977-1.224c0.384-0.292,0.838-0.438,1.362-0.438c0.212,0,0.405,0.024,0.578,0.072
			c0.173,0.049,0.331,0.113,0.474,0.195l-0.171,0.97c-0.034,0.124-0.113,0.186-0.236,0.186c-0.07,0-0.178-0.024-0.326-0.074
			c-0.148-0.05-0.354-0.075-0.615-0.075c-0.469,0-0.861,0.139-1.177,0.414c-0.316,0.276-0.58,0.678-0.792,1.206v4.926H81.131z"/>
		<path fill="#FFFFFF" d="M86.678,41.343c0-0.602,0.085-1.146,0.255-1.633c0.17-0.488,0.415-0.903,0.733-1.246
			c0.318-0.342,0.704-0.607,1.155-0.794c0.452-0.188,0.959-0.28,1.521-0.28c0.562,0,1.068,0.093,1.519,0.28
			c0.451,0.187,0.833,0.452,1.149,0.794c0.315,0.343,0.558,0.758,0.728,1.246c0.17,0.487,0.256,1.031,0.256,1.633
			c0,0.608-0.085,1.155-0.256,1.64c-0.17,0.485-0.413,0.9-0.728,1.247c-0.315,0.346-0.698,0.61-1.149,0.793
			c-0.451,0.184-0.957,0.274-1.519,0.274c-0.562,0-1.07-0.091-1.521-0.274c-0.452-0.183-0.837-0.447-1.155-0.793
			c-0.319-0.347-0.563-0.762-0.733-1.247C86.763,42.498,86.678,41.951,86.678,41.343z M88.069,41.351
			c0,0.454,0.047,0.86,0.141,1.218c0.094,0.358,0.235,0.66,0.425,0.907s0.426,0.436,0.707,0.566s0.615,0.196,1,0.196
			c0.76,0,1.326-0.255,1.699-0.763s0.559-1.217,0.559-2.125c0-0.914-0.186-1.625-0.559-2.137c-0.373-0.511-0.939-0.766-1.699-0.766
			c-0.385,0-0.719,0.064-1,0.195s-0.517,0.32-0.707,0.566c-0.19,0.248-0.332,0.553-0.425,0.915S88.069,40.896,88.069,41.351z"/>
		<path fill="#FFFFFF" d="M95.104,41.372c0-0.566,0.075-1.092,0.226-1.578c0.15-0.484,0.369-0.907,0.655-1.268
			c0.287-0.359,0.634-0.641,1.044-0.846c0.409-0.204,0.874-0.307,1.392-0.307c0.469,0,0.872,0.08,1.207,0.24
			c0.336,0.161,0.635,0.385,0.896,0.67v-4.258h1.348v11.167h-0.8c-0.193,0-0.316-0.095-0.37-0.284l-0.119-0.944
			c-0.33,0.404-0.706,0.728-1.125,0.97c-0.419,0.242-0.904,0.362-1.452,0.362c-0.438,0-0.838-0.084-1.199-0.252
			c-0.36-0.168-0.666-0.417-0.917-0.745c-0.252-0.33-0.446-0.74-0.582-1.232C95.172,42.575,95.104,42.011,95.104,41.372z
			 M96.496,41.372c0,0.498,0.043,0.925,0.129,1.281c0.086,0.357,0.214,0.65,0.382,0.879c0.168,0.229,0.373,0.396,0.614,0.503
			c0.242,0.105,0.519,0.159,0.829,0.159c0.44,0,0.826-0.102,1.159-0.303c0.333-0.203,0.638-0.488,0.915-0.857v-3.707
			c-0.247-0.336-0.518-0.568-0.814-0.698c-0.296-0.131-0.625-0.196-0.985-0.196c-0.716,0-1.266,0.254-1.651,0.762
			C96.688,39.7,96.496,40.427,96.496,41.372z"/>
		<path fill="#FFFFFF" d="M103.953,42.409v-4.895h1.347v4.905c0,0.584,0.135,1.035,0.404,1.354c0.269,0.318,0.672,0.479,1.21,0.479
			c0.396,0,0.767-0.094,1.114-0.282c0.348-0.188,0.67-0.448,0.967-0.778v-5.678h1.348v7.679h-0.8c-0.193,0-0.316-0.093-0.37-0.277
			l-0.104-0.819c-0.336,0.367-0.709,0.66-1.122,0.883c-0.412,0.222-0.888,0.332-1.426,0.332c-0.419,0-0.789-0.068-1.11-0.207
			s-0.59-0.333-0.807-0.585c-0.218-0.251-0.381-0.558-0.489-0.918C104.006,43.241,103.953,42.843,103.953,42.409z"/>
		<path fill="#FFFFFF" d="M112.017,41.343c0-0.571,0.079-1.099,0.238-1.581c0.159-0.483,0.392-0.901,0.7-1.253
			c0.308-0.353,0.686-0.627,1.135-0.824c0.45-0.197,0.966-0.295,1.548-0.295c0.538,0,1.014,0.087,1.429,0.262
			c0.415,0.176,0.78,0.422,1.096,0.737l-0.355,0.488c-0.039,0.055-0.079,0.099-0.118,0.13c-0.04,0.032-0.099,0.048-0.179,0.048
			c-0.073,0-0.155-0.032-0.244-0.096c-0.089-0.064-0.202-0.135-0.337-0.212c-0.136-0.076-0.301-0.145-0.496-0.207
			c-0.195-0.062-0.436-0.092-0.723-0.092c-0.375,0-0.706,0.066-0.992,0.199c-0.287,0.133-0.527,0.324-0.722,0.576
			c-0.195,0.251-0.342,0.557-0.44,0.916c-0.1,0.359-0.148,0.76-0.148,1.203c0,0.463,0.053,0.875,0.159,1.234
			c0.106,0.359,0.256,0.662,0.449,0.908c0.192,0.246,0.427,0.433,0.703,0.561c0.276,0.129,0.584,0.192,0.926,0.192
			c0.331,0,0.603-0.038,0.814-0.116c0.212-0.077,0.388-0.163,0.529-0.258c0.141-0.094,0.256-0.179,0.348-0.254
			c0.091-0.074,0.182-0.113,0.271-0.113c0.119,0,0.205,0.042,0.259,0.123l0.377,0.484c-0.336,0.416-0.752,0.718-1.251,0.908
			c-0.499,0.189-1.024,0.284-1.578,0.284c-0.479,0-0.926-0.087-1.339-0.263c-0.415-0.176-0.775-0.434-1.081-0.771
			c-0.305-0.34-0.544-0.754-0.718-1.243S112.017,41.972,112.017,41.343z"/>
		<path fill="#FFFFFF" d="M118.866,38.345v-0.533l1.259-0.164l0.311-2.369c0.01-0.074,0.043-0.136,0.1-0.186
			c0.057-0.049,0.127-0.073,0.211-0.073h0.681v2.644h2.199v0.977h-2.199v4.614c0,0.325,0.079,0.565,0.237,0.722
			c0.158,0.155,0.36,0.233,0.607,0.233c0.143,0,0.265-0.019,0.367-0.056c0.101-0.037,0.189-0.079,0.267-0.126
			c0.076-0.047,0.142-0.089,0.196-0.126c0.054-0.037,0.101-0.055,0.14-0.055c0.07,0,0.134,0.041,0.193,0.125l0.393,0.645
			c-0.232,0.217-0.513,0.387-0.841,0.511c-0.328,0.123-0.668,0.185-1.018,0.185c-0.608,0-1.074-0.168-1.4-0.507
			c-0.326-0.338-0.489-0.825-0.489-1.462V38.64h-0.926c-0.079,0-0.146-0.023-0.204-0.07
			C118.894,38.522,118.866,38.448,118.866,38.345z"/>
		<path fill="#FFFFFF" d="M128.426,45.193V34.331h4.055c0.799,0,1.524,0.129,2.179,0.389c0.656,0.26,1.218,0.629,1.688,1.107
			c0.47,0.479,0.833,1.053,1.09,1.719c0.256,0.668,0.384,1.408,0.384,2.224c0,0.813-0.127,1.554-0.384,2.22s-0.62,1.237-1.09,1.713
			c-0.471,0.477-1.033,0.844-1.688,1.104c-0.655,0.258-1.38,0.388-2.179,0.388H128.426z M129.884,44.001h2.587
			c0.584,0,1.112-0.096,1.587-0.288s0.879-0.469,1.212-0.829c0.333-0.359,0.591-0.803,0.774-1.328s0.274-1.121,0.274-1.786
			s-0.092-1.261-0.274-1.786s-0.441-0.971-0.774-1.336c-0.333-0.365-0.738-0.644-1.212-0.836s-1.003-0.289-1.587-0.289h-2.587
			V44.001z"/>
		<path fill="#FFFFFF" d="M139.088,41.195c0-0.538,0.082-1.039,0.245-1.503c0.163-0.465,0.4-0.867,0.709-1.207
			c0.31-0.342,0.687-0.609,1.133-0.805c0.445-0.194,0.948-0.291,1.507-0.291c0.458,0,0.881,0.077,1.27,0.232
			c0.389,0.156,0.725,0.379,1.007,0.67c0.283,0.291,0.502,0.65,0.661,1.078c0.157,0.427,0.236,0.912,0.236,1.455
			c0,0.212-0.022,0.354-0.066,0.426c-0.045,0.071-0.13,0.107-0.258,0.107h-5.096c0.011,0.483,0.076,0.905,0.197,1.266
			c0.121,0.361,0.287,0.66,0.499,0.899c0.211,0.239,0.464,0.419,0.757,0.537s0.622,0.178,0.987,0.178
			c0.34,0,0.631-0.039,0.875-0.118c0.243-0.079,0.452-0.164,0.627-0.256c0.174-0.092,0.321-0.176,0.439-0.252
			c0.119-0.076,0.222-0.115,0.31-0.115c0.113,0,0.2,0.043,0.257,0.127l0.376,0.496c-0.167,0.202-0.367,0.377-0.598,0.525
			s-0.48,0.271-0.745,0.367c-0.266,0.096-0.539,0.168-0.82,0.215c-0.28,0.047-0.561,0.069-0.841,0.069
			c-0.535,0-1.024-0.089-1.47-0.267s-0.832-0.44-1.159-0.788c-0.327-0.349-0.582-0.777-0.765-1.288
			C139.179,42.442,139.088,41.856,139.088,41.195z M140.479,40.514h4.169c0-0.313-0.042-0.602-0.125-0.864
			c-0.084-0.264-0.21-0.491-0.378-0.684c-0.167-0.19-0.372-0.338-0.613-0.443c-0.242-0.104-0.515-0.156-0.821-0.156
			c-0.65,0-1.162,0.19-1.534,0.57C140.806,39.317,140.573,39.843,140.479,40.514z"/>
		<path fill="#FFFFFF" d="M146.939,44.372l0.318-0.514c0.041-0.063,0.088-0.115,0.146-0.152c0.056-0.037,0.132-0.055,0.226-0.055
			c0.09,0,0.185,0.035,0.287,0.107c0.102,0.072,0.224,0.15,0.367,0.237c0.143,0.087,0.316,0.165,0.521,0.234
			s0.463,0.104,0.773,0.104c0.262,0,0.489-0.033,0.687-0.1c0.196-0.066,0.36-0.158,0.491-0.273s0.227-0.25,0.291-0.402
			c0.064-0.153,0.096-0.316,0.096-0.488c0-0.211-0.057-0.387-0.17-0.524s-0.264-0.256-0.451-0.354
			c-0.187-0.098-0.4-0.185-0.639-0.259s-0.484-0.149-0.738-0.229c-0.252-0.079-0.498-0.171-0.737-0.274
			c-0.239-0.105-0.452-0.238-0.64-0.398c-0.188-0.16-0.339-0.355-0.452-0.588c-0.114-0.233-0.171-0.517-0.171-0.852
			c0-0.288,0.061-0.566,0.182-0.834c0.121-0.27,0.298-0.505,0.53-0.707c0.232-0.203,0.52-0.363,0.86-0.483s0.729-0.179,1.164-0.179
			c0.498,0,0.947,0.077,1.346,0.232c0.398,0.156,0.741,0.368,1.029,0.637l-0.298,0.495c-0.059,0.113-0.147,0.167-0.269,0.162
			c-0.073,0-0.158-0.026-0.256-0.081c-0.096-0.055-0.214-0.117-0.352-0.187c-0.137-0.069-0.302-0.134-0.493-0.192
			c-0.192-0.061-0.418-0.09-0.679-0.09c-0.227,0-0.432,0.031-0.613,0.091c-0.182,0.062-0.337,0.144-0.465,0.247
			s-0.227,0.223-0.296,0.359s-0.103,0.285-0.103,0.447c0,0.203,0.056,0.37,0.168,0.504c0.111,0.135,0.26,0.251,0.444,0.35
			c0.185,0.098,0.394,0.186,0.628,0.26c0.234,0.075,0.479,0.154,0.734,0.235c0.254,0.082,0.499,0.173,0.733,0.272
			c0.235,0.1,0.444,0.223,0.63,0.371s0.335,0.331,0.447,0.547c0.112,0.217,0.168,0.477,0.168,0.783c0,0.357-0.062,0.686-0.187,0.986
			c-0.124,0.301-0.311,0.561-0.558,0.781c-0.246,0.221-0.547,0.395-0.902,0.521c-0.354,0.127-0.764,0.189-1.229,0.189
			c-0.539,0-1.025-0.086-1.461-0.261C147.617,44.877,147.246,44.65,146.939,44.372z"/>
		<path fill="#FFFFFF" d="M154.031,35.101c0-0.133,0.025-0.259,0.078-0.377c0.051-0.119,0.12-0.223,0.206-0.312
			c0.087-0.089,0.188-0.157,0.304-0.208c0.116-0.049,0.238-0.073,0.366-0.073c0.134,0,0.259,0.024,0.374,0.073
			c0.116,0.051,0.219,0.119,0.309,0.208c0.088,0.089,0.158,0.192,0.21,0.312c0.052,0.118,0.078,0.244,0.078,0.377
			s-0.026,0.257-0.078,0.371c-0.052,0.113-0.122,0.215-0.21,0.303c-0.09,0.089-0.192,0.158-0.309,0.208
			c-0.115,0.049-0.24,0.073-0.374,0.073c-0.132,0-0.257-0.024-0.37-0.073c-0.113-0.05-0.213-0.119-0.3-0.208
			c-0.086-0.088-0.155-0.189-0.206-0.303C154.056,35.357,154.031,35.233,154.031,35.101z M154.304,45.193v-7.679h1.348v7.679
			H154.304z"/>
		<path fill="#FFFFFF" d="M157.304,45.931c0-0.383,0.119-0.708,0.358-0.975c0.239-0.266,0.569-0.479,0.989-0.638
			c-0.219-0.101-0.391-0.236-0.52-0.409c-0.128-0.172-0.192-0.4-0.192-0.686c0-0.114,0.021-0.231,0.063-0.352
			c0.041-0.119,0.104-0.238,0.185-0.355s0.185-0.229,0.308-0.337c0.123-0.106,0.264-0.2,0.422-0.28
			c-0.381-0.212-0.678-0.494-0.893-0.846c-0.215-0.353-0.322-0.762-0.322-1.23c0-0.37,0.073-0.706,0.219-1.009
			c0.146-0.302,0.347-0.56,0.604-0.771c0.258-0.212,0.564-0.375,0.922-0.489c0.358-0.115,0.75-0.172,1.174-0.172
			c0.336,0,0.648,0.037,0.938,0.113c0.288,0.074,0.551,0.186,0.788,0.33h2.088v0.496c0,0.168-0.106,0.275-0.318,0.318l-0.874,0.123
			c0.174,0.32,0.26,0.674,0.26,1.061c0,0.38-0.072,0.725-0.219,1.035c-0.146,0.31-0.346,0.574-0.6,0.795
			c-0.254,0.22-0.557,0.389-0.907,0.506s-0.735,0.176-1.155,0.176c-0.36,0-0.701-0.045-1.021-0.137
			c-0.162,0.098-0.285,0.205-0.367,0.321c-0.081,0.116-0.121,0.229-0.121,0.343c0,0.195,0.072,0.342,0.217,0.439
			c0.144,0.098,0.324,0.158,0.541,0.182c0.215,0.025,0.367,0.041,0.455,0.051c0.088,0.011,0.416,0.047,0.982,0.111
			c0.566,0.062,1.006,0.111,1.316,0.146c0.312,0.035,0.589,0.114,0.832,0.238c0.242,0.124,0.437,0.295,0.583,0.514
			c0.146,0.219,0.219,0.502,0.219,0.852c0,0.33-0.081,0.648-0.245,0.955c-0.162,0.305-0.397,0.578-0.706,0.816
			c-0.31,0.24-0.687,0.432-1.133,0.578c-0.447,0.145-0.949,0.218-1.507,0.218c-0.562,0-1.055-0.056-1.478-0.167
			c-0.422-0.11-0.771-0.26-1.048-0.446s-0.484-0.403-0.626-0.647C157.374,46.459,157.304,46.202,157.304,45.931z M158.474,45.76
			c0,0.173,0.043,0.334,0.134,0.483c0.089,0.148,0.226,0.276,0.409,0.386c0.184,0.108,0.414,0.196,0.689,0.261
			c0.276,0.063,0.604,0.096,0.98,0.096c0.365,0,0.691-0.033,0.978-0.1c0.286-0.067,0.529-0.162,0.729-0.283
			c0.199-0.121,0.354-0.266,0.459-0.435c0.106-0.168,0.16-0.354,0.16-0.558c0-0.193-0.054-0.348-0.16-0.464
			c-0.105-0.116-0.249-0.205-0.43-0.267c-0.18-0.062-0.452-0.109-0.818-0.142c-0.365-0.032-0.654-0.055-0.866-0.067
			c-0.211-0.012-0.427-0.025-0.649-0.04c-0.221-0.015-0.432-0.042-0.631-0.081c-0.291,0.138-0.527,0.305-0.711,0.5
			C158.565,45.246,158.474,45.482,158.474,45.76z M158.947,39.859c0,0.22,0.037,0.422,0.111,0.606
			c0.074,0.184,0.182,0.342,0.322,0.473s0.316,0.234,0.525,0.309c0.211,0.074,0.449,0.111,0.715,0.111
			c0.271,0,0.512-0.037,0.723-0.111c0.209-0.074,0.385-0.178,0.525-0.309s0.246-0.289,0.318-0.473
			c0.072-0.185,0.107-0.387,0.107-0.606c0-0.457-0.144-0.821-0.43-1.093s-0.701-0.408-1.244-0.408s-0.957,0.137-1.244,0.408
			C159.09,39.038,158.947,39.402,158.947,39.859z"/>
		<path fill="#FFFFFF" d="M165.782,45.193v-7.679h0.806c0.193,0,0.315,0.092,0.364,0.275l0.106,0.813
			c0.336-0.364,0.708-0.657,1.117-0.88c0.41-0.224,0.885-0.334,1.428-0.334c0.418,0,0.787,0.069,1.107,0.211
			c0.32,0.141,0.587,0.338,0.801,0.592c0.215,0.254,0.377,0.561,0.487,0.918s0.166,0.757,0.166,1.195v4.888h-1.347V40.29
			c0-0.584-0.133-1.037-0.396-1.359s-0.671-0.482-1.219-0.482c-0.399,0-0.771,0.096-1.117,0.289s-0.664,0.453-0.955,0.78v5.676
			H165.782z"/>
		<path fill="#FFFFFF" d="M173.661,41.195c0-0.538,0.082-1.039,0.245-1.503c0.162-0.465,0.399-0.867,0.709-1.207
			c0.31-0.342,0.688-0.609,1.133-0.805c0.445-0.194,0.948-0.291,1.508-0.291c0.457,0,0.881,0.077,1.27,0.232
			c0.389,0.156,0.725,0.379,1.007,0.67c0.283,0.291,0.503,0.65,0.661,1.078c0.156,0.427,0.236,0.912,0.236,1.455
			c0,0.212-0.023,0.354-0.067,0.426c-0.045,0.071-0.13,0.107-0.259,0.107h-5.096c0.011,0.483,0.076,0.905,0.197,1.266
			c0.121,0.361,0.286,0.66,0.498,0.899c0.213,0.239,0.465,0.419,0.758,0.537s0.622,0.178,0.986,0.178
			c0.34,0,0.632-0.039,0.876-0.118c0.243-0.079,0.452-0.164,0.628-0.256c0.174-0.092,0.32-0.176,0.438-0.252
			s0.222-0.115,0.311-0.115c0.112,0,0.198,0.043,0.258,0.127l0.375,0.496c-0.167,0.202-0.366,0.377-0.598,0.525
			s-0.479,0.271-0.745,0.367c-0.266,0.096-0.539,0.168-0.82,0.215c-0.279,0.047-0.561,0.069-0.84,0.069
			c-0.535,0-1.025-0.089-1.471-0.267s-0.832-0.44-1.158-0.788c-0.327-0.349-0.582-0.777-0.766-1.288
			C173.751,42.442,173.661,41.856,173.661,41.195z M175.052,40.514h4.17c0-0.313-0.043-0.602-0.126-0.864
			c-0.085-0.264-0.21-0.491-0.378-0.684c-0.168-0.19-0.371-0.338-0.613-0.443c-0.242-0.104-0.515-0.156-0.82-0.156
			c-0.65,0-1.161,0.19-1.533,0.57C175.378,39.317,175.146,39.843,175.052,40.514z"/>
		<path fill="#FFFFFF" d="M182.154,45.193v-7.679h0.76c0.146,0,0.246,0.026,0.301,0.079c0.053,0.053,0.089,0.146,0.109,0.28
			l0.104,1.162c0.266-0.523,0.592-0.931,0.977-1.224c0.385-0.292,0.839-0.438,1.362-0.438c0.213,0,0.405,0.024,0.577,0.072
			c0.173,0.049,0.331,0.113,0.475,0.195l-0.171,0.97c-0.034,0.124-0.113,0.186-0.236,0.186c-0.07,0-0.178-0.024-0.326-0.074
			s-0.354-0.075-0.615-0.075c-0.469,0-0.861,0.139-1.177,0.414c-0.316,0.276-0.58,0.678-0.792,1.206v4.926H182.154z"/>
		<path fill="#FFFFFF" d="M190.699,42.292c0-0.354,0.059-0.689,0.176-1.006c0.116-0.315,0.278-0.606,0.485-0.873
			c0.208-0.266,0.453-0.506,0.738-0.717c0.286-0.213,0.597-0.396,0.932-0.549c-0.3-0.389-0.522-0.768-0.665-1.135
			s-0.215-0.748-0.215-1.144c0-0.37,0.066-0.716,0.199-1.04c0.133-0.323,0.323-0.604,0.574-0.844
			c0.25-0.238,0.555-0.429,0.915-0.569s0.764-0.212,1.21-0.212c0.398,0,0.762,0.064,1.088,0.193c0.327,0.129,0.61,0.299,0.848,0.511
			c0.24,0.212,0.428,0.459,0.564,0.739c0.139,0.282,0.219,0.575,0.244,0.881l-0.834,0.164c-0.024,0.006-0.047,0.008-0.066,0.008
			c-0.063,0-0.123-0.018-0.183-0.052c-0.058-0.034-0.1-0.099-0.124-0.192c-0.035-0.133-0.092-0.271-0.17-0.411
			c-0.08-0.141-0.182-0.269-0.306-0.385c-0.123-0.116-0.272-0.212-0.448-0.285c-0.176-0.074-0.38-0.111-0.613-0.111
			c-0.252,0-0.479,0.04-0.682,0.118c-0.203,0.079-0.378,0.191-0.523,0.337c-0.146,0.146-0.258,0.315-0.334,0.511
			c-0.077,0.195-0.115,0.405-0.115,0.633c0,0.178,0.021,0.346,0.062,0.506c0.043,0.16,0.105,0.324,0.192,0.488
			c0.087,0.166,0.198,0.334,0.333,0.508c0.137,0.172,0.299,0.355,0.492,0.547l3.121,3.174c0.193-0.34,0.348-0.695,0.463-1.065
			c0.113-0.37,0.19-0.742,0.23-1.116c0.01-0.094,0.041-0.17,0.094-0.227c0.055-0.057,0.127-0.085,0.218-0.085h0.858
			c-0.01,0.582-0.105,1.153-0.287,1.713c-0.181,0.56-0.442,1.087-0.784,1.579l2.301,2.31h-1.312c-0.152,0-0.272-0.017-0.363-0.052
			s-0.193-0.109-0.309-0.224l-1.109-1.102c-0.474,0.462-1.02,0.825-1.637,1.094c-0.619,0.268-1.301,0.401-2.045,0.401
			c-0.4,0-0.793-0.067-1.176-0.203c-0.383-0.137-0.726-0.334-1.028-0.594s-0.547-0.578-0.733-0.953
			C190.792,43.185,190.699,42.763,190.699,42.292z M192.046,42.181c0,0.331,0.061,0.621,0.18,0.87
			c0.121,0.249,0.278,0.46,0.475,0.633c0.197,0.173,0.422,0.304,0.674,0.392c0.252,0.089,0.51,0.134,0.77,0.134
			c0.567,0,1.076-0.104,1.526-0.312c0.449-0.207,0.847-0.482,1.192-0.828l-3.217-3.233c-0.533,0.286-0.934,0.63-1.199,1.032
			C192.179,41.271,192.046,41.708,192.046,42.181z"/>
		<path fill="#FFFFFF" d="M204.871,40.936v-6.604h1.459v6.605c0,0.455,0.064,0.873,0.196,1.254c0.13,0.381,0.318,0.709,0.562,0.982
			c0.245,0.275,0.546,0.489,0.903,0.643c0.359,0.154,0.762,0.23,1.211,0.23s0.85-0.076,1.203-0.227s0.652-0.363,0.896-0.639
			c0.244-0.273,0.432-0.601,0.562-0.979c0.131-0.378,0.196-0.795,0.196-1.251v-6.619h1.459v6.604c0,0.628-0.101,1.208-0.3,1.743
			c-0.201,0.537-0.484,0.999-0.855,1.389c-0.371,0.391-0.823,0.697-1.359,0.918c-0.535,0.223-1.136,0.334-1.803,0.334
			c-0.666,0-1.268-0.111-1.807-0.334c-0.538-0.221-0.994-0.527-1.365-0.918c-0.373-0.39-0.66-0.854-0.859-1.392
			C204.97,42.138,204.871,41.558,204.871,40.936z"/>
		<path fill="#FFFFFF" d="M214.831,45.193l3.739-5.583l-3.584-5.279h1.459c0.109,0,0.188,0.018,0.236,0.051
			c0.05,0.035,0.098,0.085,0.142,0.148l2.835,4.354c0.035-0.108,0.088-0.225,0.156-0.349l2.681-3.976
			c0.044-0.069,0.093-0.125,0.144-0.167c0.053-0.042,0.118-0.062,0.197-0.062h1.398l-3.598,5.213l3.717,5.649h-1.451
			c-0.114,0-0.201-0.029-0.264-0.089c-0.061-0.059-0.111-0.123-0.15-0.192l-2.918-4.554c-0.034,0.108-0.079,0.209-0.134,0.303
			l-2.836,4.251c-0.044,0.069-0.096,0.134-0.155,0.192c-0.059,0.06-0.141,0.089-0.244,0.089H214.831z"/>
		<path fill="#FFFFFF" d="M227.83,43.919l0.43-0.712c0.041-0.056,0.088-0.104,0.145-0.145s0.122-0.062,0.196-0.062
			c0.107,0,0.229,0.059,0.362,0.174c0.135,0.117,0.305,0.244,0.51,0.383c0.203,0.138,0.45,0.267,0.738,0.385
			c0.289,0.118,0.643,0.178,1.062,0.178c0.351,0,0.664-0.049,0.938-0.146c0.275-0.096,0.506-0.232,0.694-0.408
			c0.188-0.177,0.333-0.387,0.433-0.631c0.103-0.243,0.153-0.516,0.153-0.819c0-0.333-0.073-0.604-0.22-0.812
			c-0.148-0.208-0.342-0.385-0.582-0.528c-0.24-0.145-0.516-0.266-0.828-0.365c-0.311-0.099-0.629-0.199-0.955-0.303
			s-0.644-0.223-0.955-0.357c-0.311-0.135-0.588-0.311-0.832-0.527c-0.244-0.215-0.441-0.484-0.59-0.809
			c-0.147-0.324-0.221-0.725-0.221-1.2c0-0.388,0.072-0.763,0.221-1.124c0.148-0.362,0.363-0.684,0.646-0.961
			c0.282-0.277,0.631-0.501,1.047-0.67c0.416-0.168,0.895-0.254,1.436-0.254c0.609,0,1.164,0.099,1.664,0.293
			c0.5,0.195,0.939,0.478,1.314,0.847l-0.356,0.687c-0.045,0.072-0.093,0.129-0.146,0.168c-0.051,0.039-0.117,0.058-0.197,0.058
			c-0.084,0-0.185-0.042-0.301-0.127c-0.117-0.085-0.262-0.179-0.435-0.28s-0.384-0.195-0.63-0.279
			c-0.248-0.086-0.545-0.128-0.892-0.128c-0.331,0-0.622,0.045-0.875,0.134c-0.252,0.09-0.464,0.209-0.634,0.361
			c-0.172,0.151-0.301,0.33-0.387,0.535c-0.086,0.207-0.13,0.428-0.13,0.666c0,0.303,0.075,0.556,0.228,0.759
			c0.15,0.204,0.35,0.376,0.594,0.518c0.246,0.142,0.523,0.265,0.832,0.368c0.309,0.105,0.628,0.213,0.955,0.323
			c0.328,0.11,0.648,0.235,0.961,0.372c0.312,0.139,0.592,0.312,0.836,0.523c0.246,0.212,0.445,0.471,0.596,0.779
			c0.15,0.307,0.227,0.687,0.227,1.139c0,0.471-0.082,0.914-0.244,1.328c-0.164,0.414-0.402,0.775-0.714,1.082
			s-0.694,0.547-1.147,0.722s-0.971,0.261-1.549,0.261c-0.699,0-1.338-0.125-1.916-0.375S228.24,44.347,227.83,43.919z"/>
		<path fill="#FFFFFF" d="M235.763,38.345v-0.533l1.26-0.164l0.311-2.369c0.01-0.074,0.043-0.136,0.101-0.186
			c0.056-0.049,0.126-0.073,0.21-0.073h0.682v2.644h2.199v0.977h-2.199v4.614c0,0.325,0.079,0.565,0.236,0.722
			c0.158,0.155,0.361,0.233,0.608,0.233c0.143,0,0.265-0.019,0.366-0.056c0.101-0.037,0.189-0.079,0.267-0.126
			c0.076-0.047,0.142-0.089,0.196-0.126c0.054-0.037,0.102-0.055,0.141-0.055c0.069,0,0.133,0.041,0.192,0.125l0.392,0.645
			c-0.23,0.217-0.512,0.387-0.84,0.511c-0.328,0.123-0.668,0.185-1.018,0.185c-0.607,0-1.074-0.168-1.4-0.507
			c-0.325-0.338-0.488-0.825-0.488-1.462V38.64h-0.926c-0.078,0-0.146-0.023-0.203-0.07S235.763,38.448,235.763,38.345z"/>
		<path fill="#FFFFFF" d="M242.191,45.193v-7.679h0.76c0.146,0,0.247,0.026,0.301,0.079s0.09,0.146,0.109,0.28l0.105,1.162
			c0.266-0.523,0.591-0.931,0.977-1.224c0.385-0.292,0.838-0.438,1.361-0.438c0.213,0,0.405,0.024,0.578,0.072
			c0.172,0.049,0.33,0.113,0.475,0.195l-0.172,0.97c-0.034,0.124-0.113,0.186-0.236,0.186c-0.068,0-0.178-0.024-0.325-0.074
			c-0.148-0.05-0.354-0.075-0.615-0.075c-0.47,0-0.862,0.139-1.177,0.414c-0.316,0.276-0.58,0.678-0.793,1.206v4.926H242.191z"/>
		<path fill="#FFFFFF" d="M247.885,43.275c0-0.3,0.084-0.593,0.253-0.874c0.166-0.281,0.436-0.529,0.807-0.747
			c0.369-0.218,0.855-0.396,1.459-0.537c0.602-0.141,1.337-0.221,2.206-0.241v-0.598c0-0.596-0.128-1.044-0.382-1.347
			c-0.256-0.303-0.635-0.454-1.139-0.454c-0.332,0-0.609,0.041-0.832,0.125c-0.223,0.083-0.416,0.175-0.581,0.274
			c-0.167,0.101-0.308,0.192-0.427,0.275c-0.118,0.083-0.236,0.124-0.355,0.124c-0.088,0-0.166-0.022-0.235-0.068
			c-0.069-0.047-0.123-0.107-0.162-0.18l-0.243-0.426c0.425-0.412,0.883-0.719,1.373-0.924c0.491-0.203,1.035-0.305,1.633-0.305
			c0.434,0,0.818,0.072,1.154,0.215s0.619,0.341,0.849,0.592c0.229,0.252,0.402,0.557,0.52,0.915
			c0.116,0.358,0.175,0.751,0.175,1.181v4.917h-0.6c-0.133,0-0.238-0.02-0.318-0.06c-0.079-0.039-0.131-0.125-0.154-0.259
			l-0.17-0.711c-0.203,0.183-0.4,0.346-0.592,0.489c-0.191,0.143-0.393,0.264-0.606,0.362s-0.441,0.173-0.685,0.223
			c-0.244,0.049-0.512,0.073-0.805,0.073c-0.295,0-0.573-0.04-0.834-0.121c-0.262-0.082-0.488-0.207-0.68-0.375
			c-0.192-0.168-0.345-0.379-0.458-0.633S247.885,43.626,247.885,43.275z M249.173,43.199c0,0.2,0.034,0.372,0.101,0.517
			c0.067,0.145,0.155,0.263,0.268,0.355c0.11,0.093,0.241,0.16,0.393,0.201s0.315,0.062,0.493,0.062c0.238,0,0.455-0.023,0.653-0.07
			c0.198-0.046,0.386-0.113,0.56-0.201c0.177-0.088,0.344-0.193,0.502-0.318s0.314-0.268,0.468-0.428v-1.582
			c-0.624,0.02-1.153,0.068-1.589,0.146s-0.79,0.18-1.064,0.305c-0.274,0.123-0.474,0.271-0.598,0.441
			C249.236,42.8,249.173,42.989,249.173,43.199z"/>
		<path fill="#FFFFFF" d="M255.208,38.345v-0.533l1.259-0.164l0.312-2.369c0.01-0.074,0.043-0.136,0.1-0.186
			c0.057-0.049,0.127-0.073,0.211-0.073h0.682v2.644h2.198v0.977h-2.198v4.614c0,0.325,0.078,0.565,0.236,0.722
			c0.158,0.155,0.361,0.233,0.607,0.233c0.143,0,0.266-0.019,0.366-0.056s0.19-0.079,0.268-0.126
			c0.075-0.047,0.142-0.089,0.195-0.126s0.103-0.055,0.142-0.055c0.068,0,0.133,0.041,0.191,0.125l0.393,0.645
			c-0.231,0.217-0.512,0.387-0.841,0.511c-0.327,0.123-0.667,0.185-1.017,0.185c-0.607,0-1.074-0.168-1.4-0.507
			c-0.326-0.338-0.488-0.825-0.488-1.462V38.64h-0.926c-0.08,0-0.146-0.023-0.205-0.07
			C255.237,38.522,255.208,38.448,255.208,38.345z"/>
		<path fill="#FFFFFF" d="M261.088,41.195c0-0.538,0.081-1.039,0.245-1.503c0.162-0.465,0.399-0.867,0.709-1.207
			c0.309-0.342,0.688-0.609,1.133-0.805c0.445-0.194,0.947-0.291,1.508-0.291c0.457,0,0.881,0.077,1.269,0.232
			c0.39,0.156,0.726,0.379,1.007,0.67c0.283,0.291,0.504,0.65,0.662,1.078c0.156,0.427,0.235,0.912,0.235,1.455
			c0,0.212-0.022,0.354-0.066,0.426c-0.045,0.071-0.13,0.107-0.259,0.107h-5.096c0.01,0.483,0.076,0.905,0.197,1.266
			c0.119,0.361,0.286,0.66,0.498,0.899s0.465,0.419,0.758,0.537s0.621,0.178,0.986,0.178c0.34,0,0.631-0.039,0.875-0.118
			s0.453-0.164,0.629-0.256c0.174-0.092,0.32-0.176,0.438-0.252s0.222-0.115,0.31-0.115c0.113,0,0.199,0.043,0.258,0.127
			l0.376,0.496c-0.167,0.202-0.366,0.377-0.599,0.525c-0.23,0.148-0.479,0.271-0.744,0.367c-0.266,0.096-0.539,0.168-0.82,0.215
			c-0.279,0.047-0.561,0.069-0.84,0.069c-0.536,0-1.025-0.089-1.471-0.267c-0.446-0.178-0.832-0.44-1.158-0.788
			c-0.328-0.349-0.582-0.777-0.766-1.288C261.179,42.442,261.088,41.856,261.088,41.195z M262.48,40.514h4.169
			c0-0.313-0.042-0.602-0.126-0.864c-0.084-0.264-0.209-0.491-0.377-0.684c-0.168-0.19-0.371-0.338-0.613-0.443
			c-0.242-0.104-0.515-0.156-0.82-0.156c-0.65,0-1.162,0.19-1.534,0.57C262.806,39.317,262.574,39.843,262.48,40.514z"/>
		<path fill="#FFFFFF" d="M268.847,45.931c0-0.383,0.119-0.708,0.359-0.975c0.24-0.266,0.568-0.479,0.989-0.638
			c-0.218-0.101-0.391-0.236-0.519-0.409c-0.129-0.172-0.193-0.4-0.193-0.686c0-0.114,0.021-0.231,0.063-0.352
			c0.042-0.119,0.104-0.238,0.185-0.355c0.082-0.117,0.184-0.229,0.309-0.337c0.123-0.106,0.264-0.2,0.422-0.28
			c-0.381-0.212-0.678-0.494-0.893-0.846c-0.215-0.353-0.322-0.762-0.322-1.23c0-0.37,0.072-0.706,0.219-1.009
			c0.146-0.302,0.346-0.56,0.604-0.771c0.256-0.212,0.563-0.375,0.922-0.489c0.357-0.115,0.748-0.172,1.174-0.172
			c0.336,0,0.648,0.037,0.937,0.113c0.288,0.074,0.552,0.186,0.788,0.33h2.088v0.496c0,0.168-0.105,0.275-0.318,0.318l-0.873,0.123
			c0.173,0.32,0.26,0.674,0.26,1.061c0,0.38-0.073,0.725-0.219,1.035c-0.146,0.31-0.346,0.574-0.6,0.795
			c-0.256,0.22-0.557,0.389-0.908,0.506c-0.35,0.117-0.734,0.176-1.154,0.176c-0.361,0-0.701-0.045-1.022-0.137
			c-0.163,0.098-0.284,0.205-0.366,0.321s-0.122,0.229-0.122,0.343c0,0.195,0.072,0.342,0.216,0.439
			c0.145,0.098,0.326,0.158,0.541,0.182c0.217,0.025,0.369,0.041,0.457,0.051c0.088,0.011,0.416,0.047,0.982,0.111
			c0.565,0.062,1.005,0.111,1.316,0.146c0.311,0.035,0.588,0.114,0.831,0.238s0.437,0.295,0.583,0.514s0.22,0.502,0.22,0.852
			c0,0.33-0.081,0.648-0.245,0.955c-0.162,0.305-0.398,0.578-0.707,0.816c-0.309,0.24-0.686,0.432-1.133,0.578
			c-0.447,0.145-0.949,0.218-1.506,0.218c-0.564,0-1.057-0.056-1.479-0.167c-0.422-0.11-0.771-0.26-1.047-0.446
			c-0.277-0.187-0.485-0.403-0.627-0.647C268.917,46.459,268.847,46.202,268.847,45.931z M270.017,45.76
			c0,0.173,0.045,0.334,0.135,0.483c0.09,0.148,0.227,0.276,0.41,0.386c0.184,0.108,0.414,0.196,0.689,0.261
			c0.275,0.063,0.602,0.096,0.98,0.096c0.365,0,0.691-0.033,0.977-0.1c0.287-0.067,0.529-0.162,0.73-0.283
			c0.199-0.121,0.352-0.266,0.459-0.435c0.105-0.168,0.159-0.354,0.159-0.558c0-0.193-0.054-0.348-0.159-0.464
			c-0.107-0.116-0.25-0.205-0.43-0.267c-0.18-0.062-0.453-0.109-0.819-0.142s-0.654-0.055-0.865-0.067
			c-0.212-0.012-0.429-0.025-0.649-0.04c-0.222-0.015-0.432-0.042-0.631-0.081c-0.291,0.138-0.529,0.305-0.711,0.5
			C270.109,45.246,270.017,45.482,270.017,45.76z M270.492,39.859c0,0.22,0.037,0.422,0.111,0.606
			c0.074,0.184,0.182,0.342,0.322,0.473s0.316,0.234,0.525,0.309s0.448,0.111,0.715,0.111c0.271,0,0.512-0.037,0.722-0.111
			s0.386-0.178,0.525-0.309c0.142-0.131,0.247-0.289,0.318-0.473c0.072-0.185,0.107-0.387,0.107-0.606
			c0-0.457-0.144-0.821-0.429-1.093c-0.287-0.271-0.702-0.408-1.244-0.408c-0.544,0-0.958,0.137-1.244,0.408
			C270.634,39.038,270.492,39.402,270.492,39.859z"/>
		<path fill="#FFFFFF" d="M277.201,35.101c0-0.133,0.025-0.259,0.078-0.377c0.051-0.119,0.12-0.223,0.206-0.312
			c0.087-0.089,0.188-0.157,0.304-0.208c0.117-0.049,0.239-0.073,0.367-0.073c0.133,0,0.258,0.024,0.374,0.073
			c0.116,0.051,0.218,0.119,0.308,0.208c0.088,0.089,0.159,0.192,0.21,0.312c0.052,0.118,0.078,0.244,0.078,0.377
			s-0.026,0.257-0.078,0.371c-0.051,0.113-0.122,0.215-0.21,0.303c-0.09,0.089-0.191,0.158-0.308,0.208
			c-0.116,0.049-0.241,0.073-0.374,0.073s-0.258-0.024-0.371-0.073c-0.113-0.05-0.213-0.119-0.3-0.208
			c-0.086-0.088-0.155-0.189-0.206-0.303C277.226,35.357,277.201,35.233,277.201,35.101z M277.474,45.193v-7.679h1.348v7.679
			H277.474z"/>
		<path fill="#FFFFFF" d="M280.564,44.372l0.318-0.514c0.041-0.063,0.088-0.115,0.145-0.152s0.133-0.055,0.227-0.055
			c0.09,0,0.185,0.035,0.286,0.107s0.225,0.15,0.368,0.237c0.143,0.087,0.316,0.165,0.521,0.234
			c0.204,0.069,0.462,0.104,0.773,0.104c0.26,0,0.489-0.033,0.686-0.1c0.197-0.066,0.361-0.158,0.492-0.273s0.227-0.25,0.291-0.402
			c0.064-0.153,0.096-0.316,0.096-0.488c0-0.211-0.057-0.387-0.17-0.524s-0.264-0.256-0.451-0.354
			c-0.188-0.098-0.4-0.185-0.639-0.259s-0.484-0.149-0.738-0.229c-0.252-0.079-0.498-0.171-0.737-0.274
			c-0.239-0.105-0.452-0.238-0.64-0.398c-0.189-0.16-0.339-0.355-0.453-0.588c-0.113-0.233-0.17-0.517-0.17-0.852
			c0-0.288,0.061-0.566,0.182-0.834c0.121-0.27,0.298-0.505,0.53-0.707c0.232-0.203,0.519-0.363,0.859-0.483
			c0.342-0.12,0.729-0.179,1.165-0.179c0.498,0,0.947,0.077,1.345,0.232c0.399,0.156,0.742,0.368,1.03,0.637l-0.298,0.495
			c-0.059,0.113-0.147,0.167-0.269,0.162c-0.073,0-0.158-0.026-0.256-0.081c-0.096-0.055-0.214-0.117-0.352-0.187
			c-0.137-0.069-0.303-0.134-0.493-0.192c-0.192-0.061-0.419-0.09-0.679-0.09c-0.227,0-0.432,0.031-0.613,0.091
			c-0.182,0.062-0.338,0.144-0.465,0.247c-0.128,0.104-0.227,0.223-0.296,0.359s-0.103,0.285-0.103,0.447
			c0,0.203,0.055,0.37,0.168,0.504c0.111,0.135,0.26,0.251,0.444,0.35c0.185,0.098,0.394,0.186,0.628,0.26
			c0.234,0.075,0.479,0.154,0.733,0.235c0.255,0.082,0.499,0.173,0.734,0.272s0.444,0.223,0.63,0.371s0.335,0.331,0.447,0.547
			c0.112,0.217,0.168,0.477,0.168,0.783c0,0.357-0.062,0.686-0.186,0.986c-0.125,0.301-0.312,0.561-0.559,0.781
			c-0.247,0.221-0.547,0.395-0.902,0.521c-0.354,0.127-0.765,0.189-1.229,0.189c-0.539,0-1.025-0.086-1.461-0.261
			C281.242,44.877,280.871,44.65,280.564,44.372z"/>
		<path fill="#FFFFFF" d="M287.003,38.345v-0.533l1.26-0.164l0.311-2.369c0.01-0.074,0.043-0.136,0.101-0.186
			c0.057-0.049,0.127-0.073,0.211-0.073h0.681v2.644h2.199v0.977h-2.199v4.614c0,0.325,0.079,0.565,0.236,0.722
			c0.158,0.155,0.361,0.233,0.607,0.233c0.144,0,0.266-0.019,0.367-0.056s0.189-0.079,0.268-0.126
			c0.075-0.047,0.141-0.089,0.195-0.126c0.054-0.037,0.102-0.055,0.141-0.055c0.069,0,0.133,0.041,0.192,0.125l0.392,0.645
			c-0.23,0.217-0.512,0.387-0.84,0.511c-0.328,0.123-0.668,0.185-1.018,0.185c-0.607,0-1.074-0.168-1.399-0.507
			c-0.326-0.338-0.489-0.825-0.489-1.462V38.64h-0.926c-0.078,0-0.146-0.023-0.203-0.07S287.003,38.448,287.003,38.345z"/>
	</g>
</g>
</svg>
