<?xml version="1.0" encoding="utf-8"?>
<!-- Generator: Adobe Illustrator 16.0.0, SVG Export Plug-In . SVG Version: 6.00 Build 0)  -->
<!DOCTYPE svg PUBLIC "-//W3C//DTD SVG 1.1//EN" "http://www.w3.org/Graphics/SVG/1.1/DTD/svg11.dtd">
<svg version="1.1" id="Layer_1" xmlns="http://www.w3.org/2000/svg" xmlns:xlink="http://www.w3.org/1999/xlink" x="0px" y="0px"
	 width="397px" height="81px" viewBox="0 0 397 81" enable-background="new 0 0 397 81" xml:space="preserve">
<g>
	<g>
		<polyline fill="#FFFFFF" points="44.149,7 44.149,22.988 60.682,39.585 44.149,56.183 44.149,72.399 76.7,39.745 		"/>
		<polygon fill="#FFFFFF" points="37.397,63.458 37.397,56.405 37.397,39.701 28.546,39.698 28.546,47.514 20.874,39.811 
			37.397,23.212 37.397,7 4.855,39.652 37.397,72.394 		"/>
	</g>
	<g>
		<path fill="#FFFFFF" d="M115.604,15.068c-3.143-2.414-7.287-3.232-11.16-3.232c-6.697,0-11.295,4.919-11.295,11.066
			c0,6.24,4.737,11.068,11.524,11.068c2.004,0,4.281-0.364,6.103-1.184v-7.014h-5.604l-0.226-0.228v-4.828l0.226-0.227h10.705
			l0.226,0.227v15.532c-3.415,2.232-7.331,3.28-11.43,3.28c-9.793,0-17.536-7.288-17.536-16.627c0-9.107,7.515-16.623,17.307-16.623
			c4.328,0,8.244,0.592,11.389,2.596v5.967L115.604,15.068z"/>
		<path fill="#FFFFFF" d="M123.89,18.12c1.367-0.683,3.189-1.366,5.695-1.366c5.009,0,9.199,2.96,9.199,9.11v12.751l-0.229,0.228
			h-4.871l-0.23-0.228v-0.683c-1.685,1.139-3.643,1.596-5.236,1.596c-3.688,0-7.515-1.824-7.515-6.333
			c0-6.012,6.24-7.88,12.751-8.244c0-1.911-1.594-3.416-4.099-3.416c-2.504,0-4.735,0.82-7.469,2.642l-0.225-0.228L123.89,18.12z
			 M133.453,29.006c-4.78,0.228-7.284,1.64-7.284,3.644c0,1.412,1.137,2.095,2.687,2.095c1.594,0,3.004-0.455,4.598-1.368V29.006z"
			/>
		<path fill="#FFFFFF" d="M149.896,6.961l0.227,0.228v11.159c1.412-0.911,3.414-1.594,5.464-1.594
			c6.378,0,11.207,5.057,11.207,11.386c0,6.333-4.829,11.389-11.207,11.389c-2.05,0-4.052-0.685-5.464-1.596v0.683l-0.227,0.228
			h-4.828l-0.228-0.228V7.189l0.228-0.228H149.896z M150.123,31.966c1.503,1.776,3.325,2.46,5.283,2.46
			c3.415,0,5.967-2.687,5.967-6.286c0-3.598-2.552-6.285-5.967-6.285c-1.958,0-3.78,0.911-5.283,2.459V31.966z"/>
		<path fill="#FFFFFF" d="M177.221,17.438l0.229,0.228v0.683c1.594-0.911,3.642-1.594,5.692-1.594c1.363,0,2.733,0.229,4.1,0.911
			l0.229,5.329l-0.229,0.228c-1.366-1.139-3.234-1.368-4.373-1.368c-2.094,0-4.192,0.865-5.419,2.277v14.484l-0.229,0.228h-4.827
			l-0.229-0.228V17.666l0.229-0.228H177.221z"/>
		<path fill="#FFFFFF" d="M194.345,8.329l3.325,3.279v0.455l-3.325,3.327h-0.457l-3.324-3.327v-0.455l3.324-3.279H194.345z
			 M196.53,17.438l0.229,0.228v20.951l-0.229,0.228h-4.827l-0.229-0.228V17.666l0.229-0.228H196.53z"/>
		<path fill="#FFFFFF" d="M222.716,36.84c-2.046,1.366-5.235,2.688-8.467,2.688c-6.971,0-12.117-5.149-12.117-11.571
			c0-6.194,4.326-11.204,11.021-11.204c6.06,0,9.84,5.192,9.84,10.567c0,0.729,0,1.229-0.231,1.913l-0.361,0.229h-14.892
			c0.635,3.323,3.229,5.283,6.74,5.283c2.776,0,5.782-1.093,8.242-3.28l0.225,0.229V36.84z M217.662,25.455
			c-0.227-2.143-2.187-3.919-4.509-3.919c-3.008,0-4.78,1.776-5.467,3.919H217.662z"/>
		<path fill="#FFFFFF" d="M232.689,6.961l0.229,0.228v23.548c0,2.551,1.141,3.688,2.87,3.688c1.457,0,2.822-0.456,4.191-1.822
			l0.226,0.229v5.327c-1.137,0.685-2.914,1.369-4.508,1.369c-5.24,0-8.063-3.236-8.063-8.473V7.189l0.229-0.228H232.689z"/>
		<path fill="#FFFFFF" d="M245.669,18.12c1.368-0.683,3.189-1.366,5.694-1.366c5.013,0,9.2,2.96,9.2,9.11v12.751l-0.227,0.228
			h-4.873l-0.229-0.228v-0.683c-1.685,1.139-3.645,1.596-5.238,1.596c-3.688,0-7.516-1.824-7.516-6.333
			c0-6.012,6.242-7.88,12.754-8.244c0-1.911-1.594-3.416-4.099-3.416c-2.504,0-4.738,0.82-7.47,2.642l-0.229-0.228L245.669,18.12z
			 M255.235,29.006c-4.783,0.228-7.288,1.64-7.288,3.644c0,1.412,1.138,2.095,2.687,2.095c1.595,0,3.008-0.455,4.602-1.368V29.006z"
			/>
		<path fill="#FFFFFF" d="M280.327,6.961l0.227,0.228l8.975,23.821l9.019-23.821l0.227-0.228h5.513l0.227,0.228l-12.207,31.427
			l-0.229,0.228h-5.055l-0.226-0.228l-12.21-31.427l0.229-0.228H280.327z"/>
		<path fill="#FFFFFF" d="M311.112,8.329l3.325,3.279v0.455l-3.325,3.327h-0.452l-3.325-3.327v-0.455l3.325-3.279H311.112z
			 M313.3,17.438l0.228,0.228v20.951l-0.228,0.228h-4.829l-0.226-0.228V17.666l0.226-0.228H313.3z"/>
		<path fill="#FFFFFF" d="M321.817,18.12c1.363-0.683,3.186-1.366,5.691-1.366c5.01,0,9.199,2.96,9.199,9.11v12.751l-0.227,0.228
			h-4.874l-0.227-0.228v-0.683c-1.688,1.139-3.643,1.596-5.236,1.596c-3.692,0-7.517-1.824-7.517-6.333
			c0-6.012,6.238-7.88,12.753-8.244c0-1.911-1.596-3.416-4.101-3.416c-2.506,0-4.735,0.82-7.47,2.642l-0.226-0.228L321.817,18.12z
			 M331.381,29.006c-4.784,0.228-7.288,1.64-7.288,3.644c0,1.412,1.141,2.095,2.688,2.095c1.593,0,3.005-0.455,4.601-1.368V29.006z"
			/>
		<path fill="#FFFFFF" d="M347.821,17.438l0.224,0.228v0.683c1.598-0.911,3.646-1.594,5.696-1.594c6.83,0,10.246,3.873,10.246,10.02
			v11.842l-0.227,0.228h-4.829l-0.226-0.228v-11.25c0-3.644-1.821-5.511-5.237-5.511c-2.099,0-4.192,0.865-5.424,2.277v14.484
			l-0.224,0.228h-4.827l-0.229-0.228V17.666l0.229-0.228H347.821z"/>
		<path fill="#FFFFFF" d="M371.82,18.12c1.368-0.683,3.187-1.366,5.692-1.366c5.012,0,9.201,2.96,9.201,9.11v12.751l-0.227,0.228
			h-4.874l-0.227-0.228v-0.683c-1.685,1.139-3.646,1.596-5.238,1.596c-3.69,0-7.515-1.824-7.515-6.333
			c0-6.012,6.24-7.88,12.753-8.244c0-1.911-1.594-3.416-4.1-3.416c-2.504,0-4.738,0.82-7.47,2.642l-0.228-0.228L371.82,18.12z
			 M381.387,29.006c-4.783,0.228-7.287,1.64-7.287,3.644c0,1.412,1.136,2.095,2.685,2.095c1.596,0,3.009-0.455,4.603-1.368V29.006z"
			/>
	</g>
	<g>
		<path fill="#FFFFFF" stroke="#FFFFFF" stroke-miterlimit="10" d="M92.844,49.496c3.373,0,5.297,1.837,5.297,4.431
			c0,2.595-1.924,4.412-5.297,4.412h-2.811v6.183l-0.108,0.108h-1.059l-0.109-0.108V49.604l0.087-0.108H92.844z M90.034,57.084
			h2.811c2.422,0,3.87-1.189,3.87-3.157c0-1.966-1.448-3.178-3.87-3.178h-2.811V57.084z"/>
		<path fill="#FFFFFF" stroke="#FFFFFF" stroke-miterlimit="10" d="M101.706,54.468l0.108,0.109v1.059
			c0.865-0.886,2.227-1.491,3.546-1.491c0.648,0,1.34,0.108,1.989,0.433l0.108,1.253l-0.108,0.108
			c-0.692-0.541-1.448-0.584-1.989-0.584c-1.363,0-2.832,0.714-3.546,1.816v7.351l-0.108,0.108h-1.059l-0.109-0.108v-9.945
			l0.109-0.109H101.706z"/>
		<path fill="#FFFFFF" stroke="#FFFFFF" stroke-miterlimit="10" d="M119.258,59.549c0,3.027-2.334,5.406-5.297,5.406
			c-2.962,0-5.296-2.379-5.296-5.406c0-3.026,2.334-5.404,5.296-5.404C116.923,54.145,119.258,56.522,119.258,59.549z
			 M110.005,59.549c0,2.4,1.729,4.195,3.956,4.195c2.227,0,3.957-1.794,3.957-4.195c0-2.399-1.729-4.194-3.957-4.194
			C111.734,55.354,110.005,57.15,110.005,59.549z"/>
		<path fill="#FFFFFF" stroke="#FFFFFF" stroke-miterlimit="10" d="M131.578,49.496l0.109,0.108v14.918l-0.109,0.108h-1.038
			l-0.108-0.108v-1.06c-0.821,0.887-2.075,1.493-3.502,1.493c-2.962,0-5.297-2.379-5.297-5.406c0-3.026,2.335-5.404,5.297-5.404
			c1.427,0,2.682,0.605,3.502,1.491v-6.032l0.108-0.108H131.578z M130.432,57.171c-0.821-1.102-2.075-1.816-3.502-1.816
			c-2.227,0-3.957,1.795-3.957,4.194c0,2.4,1.729,4.195,3.957,4.195c1.427,0,2.682-0.67,3.502-1.816V57.171z"/>
		<path fill="#FFFFFF" stroke="#FFFFFF" stroke-miterlimit="10" d="M136.525,54.468l0.108,0.109v5.297
			c0,2.508,1.146,3.87,3.437,3.87c1.362,0,2.833-0.713,3.546-1.816v-7.35l0.108-0.109h1.038l0.108,0.109v9.945l-0.108,0.108h-1.038
			l-0.108-0.108v-1.06c-0.887,0.887-2.248,1.493-3.546,1.493c-3.135,0-4.713-1.839-4.713-4.973v-5.405l0.108-0.109H136.525z"/>
		<path fill="#FFFFFF" stroke="#FFFFFF" stroke-miterlimit="10" d="M156.864,56.587c-1.146-0.908-2.161-1.232-3.35-1.232
			c-2.444,0-4.173,1.837-4.173,4.194c0,2.357,1.729,4.195,4.173,4.195c1.189,0,2.205-0.325,3.35-1.232l0.109,0.108v1.254
			c-0.866,0.648-2.055,1.082-3.459,1.082c-3.287,0-5.514-2.422-5.514-5.406c0-2.983,2.227-5.404,5.514-5.404
			c1.405,0,2.594,0.433,3.459,1.081v1.253L156.864,56.587z"/>
		<path fill="#FFFFFF" stroke="#FFFFFF" stroke-miterlimit="10" d="M161.704,51.874l0.108,0.13v2.464h4.346l0.108,0.109v1.038
			l-0.108,0.108h-4.346v5.253c0,2.055,0.973,2.768,2.075,2.768c0.605,0,1.471-0.13,2.271-0.692l0.108,0.108v1.146
			c-0.626,0.389-1.6,0.65-2.378,0.65c-2.053,0-3.351-1.298-3.351-3.871v-5.361h-1.73l-0.108-0.108v-1.038l0.108-0.109h1.73v-2.486
			l0.108-0.108H161.704z"/>
		<path fill="#FFFFFF" stroke="#FFFFFF" stroke-miterlimit="10" d="M178.562,49.496c4.649,0,8,3.352,8,7.567
			c0,4.216-3.35,7.567-8,7.567h-4.193l-0.109-0.108V49.604l0.109-0.108H178.562z M175.536,63.376h3.027
			c3.74,0,6.551-2.79,6.551-6.313c0-3.523-2.811-6.313-6.551-6.313h-3.027V63.376z"/>
		<path fill="#FFFFFF" stroke="#FFFFFF" stroke-miterlimit="10" d="M198.34,63.549c-0.821,0.648-2.335,1.406-3.891,1.406
			c-3.244,0-5.514-2.508-5.514-5.514c0-2.941,2.011-5.296,5.081-5.296c2.919,0,4.433,2.55,4.433,4.951c0,0.108,0,0.303-0.109,0.541
			l-0.216,0.108h-7.87c0.129,2.249,1.73,4,4.195,4c1.34,0,2.745-0.584,3.783-1.556l0.108,0.108V63.549z M197.173,58.706
			c-0.108-1.924-1.34-3.352-3.157-3.352c-2.14,0-3.481,1.471-3.74,3.352H197.173z"/>
		<path fill="#FFFFFF" stroke="#FFFFFF" stroke-miterlimit="10" d="M207.633,56.349c-1.081-0.734-2.162-0.995-3.243-0.995
			c-1.318,0-2.227,0.714-2.227,1.644c0,2.399,6.313,0.995,6.313,4.821c0,1.794-1.665,3.136-3.978,3.136
			c-1.298,0-2.639-0.261-3.676-0.909v-1.232l0.108-0.108c1.189,0.779,2.379,1.038,3.568,1.038c1.686,0,2.658-0.779,2.658-1.924
			c0-2.508-6.334-1.146-6.334-4.821c0-1.622,1.514-2.854,3.567-2.854c1.298,0,2.487,0.324,3.351,0.864v1.232L207.633,56.349z"/>
		<path fill="#FFFFFF" stroke="#FFFFFF" stroke-miterlimit="10" d="M212.279,50.857l0.887,0.909v0.216l-0.887,0.887h-0.217
			l-0.908-0.887v-0.216l0.908-0.909H212.279z M212.689,54.468l0.108,0.109v9.945l-0.108,0.108h-1.059l-0.109-0.108v-9.945
			l0.109-0.109H212.689z"/>
		<path fill="#FFFFFF" stroke="#FFFFFF" stroke-miterlimit="10" d="M225.119,54.555v1.081l-0.108,0.087h-1.686
			c0.626,0.626,1.038,1.469,1.038,2.421c0,2.227-1.729,4-4.108,4c-0.692,0-1.341-0.173-1.881-0.476
			c-0.217,0.195-0.325,0.389-0.325,0.648c0,1.622,7.178,1.081,7.178,4.865c0,1.815-1.773,3.178-4.777,3.178
			c-3.005,0-5.146-0.8-5.146-3.07c0-1.406,1.383-2.465,2.682-3.308c-0.65-0.346-1.168-0.8-1.168-1.514
			c0-0.475,0.238-0.995,0.713-1.361c-0.864-0.735-1.384-1.773-1.384-2.962c0-2.206,1.839-4,4.109-4c0.562,0,1.124,0.129,1.621,0.324
			h3.136L225.119,54.555z M216.622,67.29c0,1.319,1.405,1.902,3.828,1.902c2.312,0,3.437-0.93,3.437-2.01
			c0-1.729-3.157-2.185-4.821-2.746C218.265,64.889,216.622,66.057,216.622,67.29z M217.444,58.144c0,1.556,1.253,2.832,2.811,2.832
			c1.556,0,2.832-1.276,2.832-2.832c0-1.557-1.276-2.833-2.832-2.833C218.698,55.311,217.444,56.587,217.444,58.144z"/>
		<path fill="#FFFFFF" stroke="#FFFFFF" stroke-miterlimit="10" d="M228.877,54.468l0.108,0.109v1.059
			c0.865-0.886,2.227-1.491,3.546-1.491c3.134,0,4.692,1.837,4.692,4.972v5.406l-0.108,0.108h-1.038l-0.109-0.108v-5.296
			c0-2.508-1.146-3.871-3.437-3.871c-1.363,0-2.832,0.714-3.546,1.816v7.351l-0.108,0.108h-1.059l-0.109-0.108v-9.945l0.109-0.109
			H228.877z"/>
		<path fill="#FFFFFF" stroke="#FFFFFF" stroke-miterlimit="10" d="M249.542,63.549c-0.821,0.648-2.335,1.406-3.891,1.406
			c-3.243,0-5.514-2.508-5.514-5.514c0-2.941,2.011-5.296,5.081-5.296c2.919,0,4.433,2.55,4.433,4.951c0,0.108,0,0.303-0.109,0.541
			l-0.216,0.108h-7.87c0.129,2.249,1.729,4,4.194,4c1.34,0,2.745-0.584,3.783-1.556l0.108,0.108V63.549z M248.375,58.706
			c-0.108-1.924-1.34-3.352-3.157-3.352c-2.14,0-3.481,1.471-3.741,3.352H248.375z"/>
		<path fill="#FFFFFF" stroke="#FFFFFF" stroke-miterlimit="10" d="M253.84,54.468l0.108,0.109v1.059
			c0.865-0.886,2.227-1.491,3.546-1.491c0.648,0,1.34,0.108,1.989,0.433l0.108,1.253l-0.108,0.108
			c-0.692-0.541-1.448-0.584-1.989-0.584c-1.363,0-2.832,0.714-3.546,1.816v7.351l-0.108,0.108h-1.059l-0.109-0.108v-9.945
			l0.109-0.109H253.84z"/>
	</g>
</g>
</svg>
